<?xml version="1.0" standalone="no"?>
<!DOCTYPE svg PUBLIC "-//W3C//DTD SVG 20010904//EN"
 "http://www.w3.org/TR/2001/REC-SVG-20010904/DTD/svg10.dtd">
<svg version="1.0" xmlns="http://www.w3.org/2000/svg"
 width="502.000000pt" height="501.000000pt" viewBox="0 0 502.000000 501.000000"
 preserveAspectRatio="xMidYMid meet">

<g transform="translate(0.000000,501.000000) scale(0.100000,-0.100000)"
fill="#000000" stroke="none">
<path d="M2330 4859 c-566 -35 -973 -208 -1426 -605 -94 -83 -312 -339 -400
-469 -84 -127 -201 -363 -245 -498 -40 -121 -84 -298 -106 -422 -22 -127 -25
-605 -5 -730 48 -297 96 -447 200 -622 86 -145 120 -192 317 -438 277 -345
502 -533 846 -706 55 -27 123 -59 151 -70 28 -11 70 -29 93 -39 61 -28 293
-86 418 -104 125 -19 443 -22 564 -6 208 28 429 82 590 145 386 151 703 370
942 650 285 334 418 585 516 975 56 221 78 402 78 645 0 276 -27 494 -89 720
-31 115 -37 130 -94 246 -81 166 -152 260 -415 553 -121 135 -153 167 -268
264 -410 346 -735 473 -1307 512 -159 11 -177 11 -360 -1z m550 -249 c72 -13
81 -17 60 -30 -9 -6 -51 -6 -100 -2 -139 12 -497 8 -580 -7 -200 -34 -400 -97
-635 -199 -200 -86 -253 -113 -366 -189 -185 -123 -304 -242 -415 -413 -112
-173 -230 -474 -298 -760 -47 -197 -59 -301 -60 -525 0 -267 17 -394 90 -673
37 -140 42 -210 11 -141 -21 46 -85 259 -98 324 -44 217 -61 517 -40 705 40
367 195 832 366 1095 197 303 479 500 989 692 140 52 391 118 503 132 99 12
488 6 573 -9z m445 -76 c194 -46 184 -42 162 -58 -20 -16 -55 -10 -226 34
-184 48 -191 50 -191 62 0 15 76 4 255 -38z m-48 -71 c117 -46 340 -156 398
-196 183 -125 353 -279 451 -407 191 -248 354 -658 408 -1025 51 -340 17 -710
-95 -1052 -29 -88 -43 -112 -56 -99 -4 3 8 57 25 119 74 264 102 461 102 716
0 272 -36 489 -124 748 -149 441 -346 707 -698 943 -133 90 -485 259 -508 245
-8 -5 -34 -135 -28 -140 2 -1 26 -10 53 -19 115 -37 388 -194 502 -288 266
-219 466 -501 559 -785 66 -204 94 -337 114 -542 48 -494 -75 -1019 -327
-1392 -88 -129 -261 -306 -379 -386 -180 -123 -502 -245 -774 -295 -98 -18
-155 -21 -390 -22 -322 -1 -395 8 -638 75 -182 50 -390 144 -547 247 -109 71
-289 257 -374 387 -376 570 -456 1323 -211 2000 111 308 363 619 644 794 226
141 517 248 816 301 169 29 472 27 668 -4 145 -24 157 -28 154 -57 -5 -52 -81
-461 -85 -466 -3 -2 -43 2 -89 11 -426 80 -974 14 -1204 -145 -54 -37 -80 -86
-63 -121 16 -33 55 -62 145 -106 155 -77 303 -109 421 -92 37 5 75 10 83 10
13 0 13 1 0 10 -8 5 -59 10 -112 10 -60 0 -99 4 -104 11 -5 8 -8 8 -13 0 -19
-30 -353 103 -387 154 -15 23 -15 27 2 52 52 81 201 146 445 195 102 20 142
23 374 23 252 -1 458 -16 471 -36 3 -5 -18 -9 -46 -9 -83 0 -200 -28 -277 -66
-65 -33 -160 -114 -185 -158 -27 -49 -149 -64 -317 -38 -125 19 -152 35 -118
69 14 14 39 18 122 21 94 4 108 2 140 -18 47 -29 53 -22 10 13 -32 26 -37 26
-143 24 -120 -2 -152 -16 -152 -63 0 -27 2 -27 -160 12 -52 12 -96 21 -98 19
-11 -10 123 -52 219 -69 43 -8 54 -19 64 -63 3 -18 11 -36 17 -39 7 -5 9 0 5
14 -4 12 -10 31 -13 42 -6 20 -4 20 92 13 123 -10 290 -10 325 0 17 4 29 16
33 31 8 32 126 140 186 171 74 38 162 55 283 55 99 0 108 -2 103 -17 -3 -10
-10 -56 -15 -102 -5 -50 -14 -87 -23 -92 -10 -7 -10 -9 2 -9 12 -1 11 -3 -3
-11 -22 -13 -474 0 -455 13 9 6 5 8 -12 6 -17 -2 -26 -10 -28 -24 -3 -20 3
-22 85 -29 48 -4 106 -14 128 -22 107 -39 105 -39 92 -52 -10 -10 1 -11 58 -6
100 9 179 25 187 39 4 6 8 25 8 42 0 17 6 36 13 41 6 6 49 16 95 23 68 10 80
15 71 26 -9 11 -6 14 15 14 14 0 26 -5 26 -10 0 -10 32 -6 79 12 38 14 18 20
-30 9 -24 -6 -50 -6 -58 -1 -10 5 -26 3 -42 -6 -24 -12 -53 -21 -137 -41 -22
-5 -23 -3 -18 28 3 19 8 64 11 102 6 64 8 67 33 67 34 0 154 -32 206 -54 94
-39 130 -92 89 -128 -33 -29 -127 -71 -257 -114 -129 -44 -304 -77 -468 -90
-45 -3 -78 -10 -78 -16 0 -25 367 19 514 62 112 33 267 105 309 144 34 32 34
56 0 97 -36 42 -126 84 -240 110 -108 25 -102 12 -74 164 19 104 19 115 -4
115 -12 0 -13 17 -9 88 7 128 12 161 29 185 8 12 15 31 15 42 0 15 3 16 9 7 5
-9 10 0 15 28 4 27 2 47 -5 56 -22 26 27 15 148 -33z m-2552 -3073 c146 -281
315 -492 503 -627 75 -54 501 -242 697 -308 230 -77 310 -90 540 -89 185 0
211 3 350 32 352 74 796 241 991 373 182 122 378 373 493 629 45 98 83 148 89
116 5 -23 -109 -254 -175 -356 -124 -190 -261 -338 -396 -428 -169 -112 -597
-280 -897 -352 -187 -44 -271 -54 -455 -55 -220 0 -314 16 -570 99 -161 52
-593 241 -669 292 -132 89 -288 256 -410 439 -57 86 -196 344 -196 364 0 7 8
11 18 9 11 -2 43 -53 87 -138z"/>
<path d="M3087 4163 c-13 -13 -7 -21 21 -26 101 -20 263 -223 313 -394 102
-341 -251 -1021 -627 -1212 -172 -87 -421 -83 -603 9 -143 72 -286 214 -398
395 -91 147 -202 421 -232 573 -22 107 -8 210 41 306 33 65 164 187 238 223
73 35 131 53 175 54 29 0 30 1 7 12 -46 22 -186 -29 -288 -104 -102 -75 -171
-175 -200 -292 -38 -144 15 -403 131 -642 74 -152 110 -211 186 -308 262 -332
639 -435 974 -267 202 101 373 292 505 565 158 329 184 590 78 800 -64 125
-175 253 -259 295 -41 21 -52 24 -62 13z"/>
<path d="M2285 3793 c-26 -6 -85 -51 -85 -64 0 -6 17 3 37 20 47 39 99 42 131
8 12 -13 22 -32 23 -43 0 -11 3 -14 6 -6 8 22 -17 69 -43 81 -26 11 -35 12
-69 4z"/>
<path d="M2942 3405 c-38 -12 -93 -20 -262 -41 -30 -4 -49 -9 -41 -12 8 -3 53
-30 100 -62 86 -56 149 -90 170 -90 46 0 -64 -321 -149 -436 -21 -29 -105 -92
-149 -111 -38 -17 -183 -24 -231 -11 -21 6 -26 4 -27 -13 -1 -12 7 -23 20 -29
20 -7 21 -9 4 -15 -15 -6 -16 -10 -5 -17 10 -8 10 -9 -2 -5 -8 2 -13 12 -12
22 3 16 1 17 -12 6 -9 -7 -13 -17 -10 -22 3 -5 -3 -9 -13 -9 -17 -1 -16 -2 2
-12 27 -16 218 -15 285 1 30 8 75 23 100 34 67 31 155 101 157 126 1 11 -3 21
-9 21 -6 0 -8 9 -5 19 6 25 -17 35 -46 19 -21 -11 -21 -11 -5 13 77 109 127
242 169 452 30 154 34 187 22 186 -5 0 -27 -6 -51 -14z"/>
<path d="M2165 3381 c-37 -9 97 -21 225 -21 92 0 133 7 124 21 -6 10 -304 10
-349 0z"/>
<path d="M2165 2975 c19 -95 98 -196 189 -240 141 -69 283 -32 378 99 44 62
33 63 -31 3 -33 -30 -81 -65 -108 -78 -130 -64 -300 7 -377 158 -13 26 -32 57
-41 68 -16 19 -16 19 -10 -10z"/>
<path d="M2885 2720 c-10 -11 -14 -20 -8 -20 5 0 18 9 28 20 10 11 14 20 8 20
-5 0 -18 -9 -28 -20z"/>
<path d="M1340 2025 l0 -185 116 0 c99 0 122 3 153 20 76 44 110 147 76 235
-31 82 -106 115 -265 115 l-80 0 0 -185z m205 50 c15 -14 25 -36 25 -53 0 -38
-42 -84 -73 -80 -20 3 -22 9 -25 67 -2 35 -1 70 2 77 8 22 45 16 71 -11z"/>
<path d="M1845 2198 c-3 -7 -21 -58 -41 -113 -34 -96 -60 -175 -71 -222 -5
-22 -3 -23 57 -23 41 0 66 5 76 15 9 8 33 15 55 15 28 0 39 -4 39 -15 0 -12
15 -15 75 -15 41 0 75 4 75 8 0 19 -73 228 -101 292 l-32 70 -64 0 c-42 0 -65
-4 -68 -12z m95 -183 c0 -26 -22 -39 -39 -22 -22 22 -2 61 25 50 8 -3 14 -15
14 -28z"/>
<path d="M2150 2025 l0 -185 65 0 64 0 3 63 3 62 34 -70 34 -70 31 68 c16 37
33 67 38 67 4 0 8 -27 8 -60 l0 -60 65 0 65 0 0 185 0 185 -62 0 -63 0 -38
-71 c-22 -39 -42 -68 -45 -64 -4 3 -23 34 -42 68 l-36 62 -62 3 -62 3 0 -186z"/>
<path d="M2670 2083 c-59 -41 -79 -94 -60 -162 16 -60 58 -86 141 -86 41 0 72
5 82 14 16 12 16 15 0 41 -14 24 -21 27 -49 23 -18 -3 -41 -2 -51 1 -26 10 2
26 47 26 66 1 80 9 80 47 0 65 -54 113 -127 113 -21 0 -50 -8 -63 -17z m90
-78 c0 -8 -9 -15 -20 -15 -20 0 -26 11 -13 23 12 13 33 7 33 -8z"/>
<path d="M3440 2093 c-69 -11 -69 -10 -59 -50 5 -21 9 -75 9 -120 l0 -83 60 0
60 0 0 75 c0 68 2 75 20 75 18 0 20 -7 20 -75 l0 -75 60 0 61 0 -3 117 -3 118
-38 12 c-32 11 -44 10 -74 -2 -44 -18 -43 -18 -43 0 0 15 -16 17 -70 8z"/>
<path d="M3045 2035 c-8 -70 2 -139 27 -170 21 -27 73 -34 110 -14 14 8 23 8
31 0 6 -6 36 -11 68 -11 l56 0 1 125 0 126 -62 -3 -61 -3 -3 -72 c-2 -55 -6
-73 -17 -73 -18 0 -29 59 -21 110 l6 40 -64 0 -64 0 -7 -55z"/>
<path d="M2229 1557 c-19 -12 -43 -27 -54 -33 -11 -6 -21 -24 -23 -39 -3 -27
-3 -27 34 -20 42 7 134 51 133 63 0 4 -13 17 -28 29 l-28 22 -34 -22z"/>
<path d="M1835 1531 c-62 -38 -95 -97 -95 -170 0 -79 37 -143 104 -178 56 -29
187 -13 211 27 10 16 -2 53 -25 83 -21 26 -22 26 -52 11 -37 -19 -73 -12 -94
21 -21 32 -15 64 19 89 28 21 29 21 98 -8 24 -11 76 79 58 100 -38 46 -167 61
-224 25z"/>
<path d="M3154 1504 c3 -26 6 -111 6 -190 l0 -144 60 0 60 0 0 180 c0 99 1
183 3 188 1 4 -29 8 -67 10 l-69 3 7 -47z"/>
<path d="M2650 1476 c0 -25 -4 -48 -10 -51 -5 -3 -10 -26 -10 -50 0 -24 5 -47
10 -50 6 -3 10 -33 10 -65 0 -69 19 -90 82 -90 54 0 85 17 92 52 9 44 9 43
-30 57 -42 15 -43 44 -1 49 25 3 27 6 27 53 0 48 -1 49 -30 49 -28 0 -30 3
-30 35 0 38 -3 40 -67 49 l-43 6 0 -44z"/>
<path d="M2186 1440 c-78 -24 -121 -126 -83 -200 34 -67 134 -91 198 -47 41
28 59 60 59 110 0 97 -85 164 -174 137z m67 -124 c7 -19 -18 -40 -38 -32 -15
6 -20 28 -8 39 12 12 41 7 46 -7z"/>
<path d="M2464 1431 c-11 -5 -33 -23 -47 -41 -21 -25 -27 -42 -27 -82 0 -84
55 -138 142 -138 63 0 71 9 61 61 -7 38 -12 45 -38 49 -40 7 -43 44 -4 48 23
3 29 10 38 49 7 25 9 48 6 51 -9 10 -110 12 -131 3z"/>
<path d="M2923 1420 c-40 -24 -63 -67 -63 -119 0 -82 42 -123 132 -129 50 -4
118 11 118 25 0 2 -7 15 -17 29 -12 19 -24 25 -47 23 -91 -6 -89 16 2 27 l67
9 3 37 c8 93 -108 152 -195 98z m94 -77 c4 -11 -32 -25 -41 -15 -8 8 15 33 27
29 6 -2 12 -8 14 -14z"/>
</g>
</svg>
