<!DOCTYPE svg PUBLIC "-//W3C//DTD SVG 1.1//EN" "http://www.w3.org/Graphics/SVG/1.1/DTD/svg11.dtd">
<!-- Uploaded to: SVG Repo, www.svgrepo.com, Transformed by: SVG Repo Mixer Tools -->
<svg fill="#008040" height="80px" width="80px" version="1.1" id="Layer_1" xmlns="http://www.w3.org/2000/svg" xmlns:xlink="http://www.w3.org/1999/xlink" viewBox="0 0 512.001 512.001" xml:space="preserve" stroke="#008040">

<g id="SVGRepo_bgCarrier" stroke-width="0"/>

<g id="SVGRepo_tracerCarrier" stroke-linecap="round" stroke-linejoin="round" stroke="#CCCCCC" stroke-width="2.0480039999999997"/>

<g id="SVGRepo_iconCarrier"> <g> <g> <path d="M430.954,219.969l-163.88,163.879c-3.058,3.059-7.066,4.589-11.073,4.589c-4.007,0-8.016-1.53-11.073-4.589 L81.046,219.969c-4.164-4.165-8.04-8.539-11.636-13.091c1.466,28.68,13.328,55.435,33.783,75.89L256,435.575l152.808-152.808 c20.455-20.455,32.318-47.212,33.783-75.891C438.997,211.429,435.12,215.804,430.954,219.969z"/> </g> </g> <g> <g> <path d="M430.955,304.915L267.075,468.797c-2.937,2.937-6.92,4.587-11.073,4.587s-8.136-1.65-11.073-4.587L81.046,304.915 c-4.112-4.113-7.944-8.43-11.501-12.921c1.945,27.846,13.718,53.758,33.649,73.688l141.733,141.733 c3.058,3.057,7.066,4.586,11.073,4.586s8.016-1.53,11.073-4.586l141.733-141.733c19.932-19.931,31.703-45.842,33.649-73.688 C438.901,296.485,435.069,300.802,430.955,304.915z"/> </g> </g> <g> <g> <path d="M408.808,33.942C386.921,12.054,357.82,0,326.867,0C300.884,0,276.203,8.496,256,24.172 C235.799,8.496,211.118,0,185.134,0c-30.952,0-60.055,12.056-81.94,33.942c-21.642,21.642-33.661,50.337-33.928,80.899 l-0.013-0.006v1.024v0.022c0,30.954,12.054,60.054,33.94,81.94L256,350.628l152.807-152.807 c21.887-21.887,33.941-50.988,33.941-81.94v-0.022c0-0.003,0-0.005,0-0.008C442.74,84.909,430.688,55.822,408.808,33.942z M256,212.71c-33.728,0-61.169-27.44-61.169-61.169S222.273,90.373,256,90.373c33.729,0,61.169,27.44,61.169,61.169 S289.729,212.71,256,212.71z"/> </g> </g> </g>

</svg>